:version 1.10
:name ASF
:units
  mass 1
  length 1
  angle deg
:documentation
  ASF file generated by Kaydara
:root
  axis xyz
  order  tx ty tz rx ry rz
  position 0 0 0
  orientation 0 0 0
:bonedata
  begin
    id 1
    name RightUpLegDummy
    direction -0.718183 -0.695806 0.00816078
    length 4.904
    axis 0 0 0 xyz
  end
  begin
    id 2
    name RightUpLeg
    direction 3.53989e-006 -0.995788 0.0916897
    length 17.4976
    axis -3.49089 -0.000906621 0.000287158 xyz
    dof rx ry rz
  end
  begin
    id 3
    name RightLeg
    direction 0.00371093 -0.995096 -0.0988418
    length 16.5821
    axis 3.68512 0.0193738 -0.131023 xyz
    dof rx ry rz
  end
  begin
    id 4
    name RightFoot
    direction 0.000791514 -0.46099 0.887405
    length 3.77069
    axis 4.84075e-005 -0.120479 -0.188788 xyz
    dof rx ry rz
  end
  begin
    id 5
    name RightToes
    direction 0.00124746 -0.014064 0.9999
    length 3.85082
    axis 0.00048216 0.542163 -0.142577 xyz
    dof rx ry rz
  end
  begin
    id 6
    name SpineDummy
    direction 8.36599e-015 1 5.97571e-016
    length 4.6813
    axis 0 0 0 xyz
  end
  begin
    id 7
    name Spine
    direction -4.63632e-008 0.999988 0.00495137
    length 10.1015
    axis -0.00138897 0.000121419 3.25764e-006 xyz
    dof rx ry rz
  end
  begin
    id 8
    name Spine1
    direction 0 0 0
    length 0
    axis -0.00138896 0.000121452 2.39764e-006 xyz
    dof rx ry rz
  end
  begin
    id 9
    name HEadDummy
    direction -3.91456e-008 0.999999 0.00127422
    length 3.43865
    axis -0.00138896 0.000121452 2.39764e-006 xyz
  end
  begin
    id 10
    name HEad
    direction -0.0222688 0.980941 0.193023
    length 5.12695
    axis -0.00138895 0.000121452 2.39764e-006 xyz
    dof rx ry rz
  end
  begin
    id 11
    name LeftShoulder1Dummy
    direction 0.998891 -0.0402508 -0.0244456
    length 3.5433
    axis -0.00138896 0.000121452 2.39764e-006 xyz
  end
  begin
    id 12
    name LeftShoulder1
    direction 0.99951 -0.000327743 0.0313091
    length 4.05031
    axis -0.00138896 0.000121452 2.39764e-006 xyz
    dof rx ry rz
  end
  begin
    id 13
    name LeftArm
    direction 0.998561 -0.00100054 -0.0536182
    length 10.3537
    axis -23.1894 0.134784 0.96751 xyz
    dof rx ry rz
  end
  begin
    id 14
    name LeftForeArm
    direction 0.998903 0.00866434 0.046012
    length 8.70632
    axis -9.91835 -0.06569 -0.177792 xyz
    dof rx ry rz
  end
  begin
    id 15
    name LeftHand
    direction 0.992938 -0.0411636 0.11126
    length 5.32135
    axis -0.00960227 -0.00340091 0.185174 xyz
    dof rx ry rz
  end
  begin
    id 16
    name RightShoulderDummy
    direction -0.998891 -0.0402509 -0.0244414
    length 3.5433
    axis -0.00138896 0.000121452 2.39764e-006 xyz
  end
  begin
    id 17
    name RightShoulder
    direction -0.99951 -0.000327827 0.0313133
    length 4.05031
    axis 0.215806 0.000203644 -0.00680151 xyz
    dof rx ry rz
  end
  begin
    id 18
    name RightArm
    direction -0.998573 -0.000999583 -0.053403
    length 10.3947
    axis -23.2009 -0.134239 -0.9641 xyz
    dof rx ry rz
  end
  begin
    id 19
    name RightForeArm
    direction -0.998898 0.00868026 0.0461306
    length 8.68355
    axis -9.92322 0.0658061 0.178869 xyz
    dof rx ry rz
  end
  begin
    id 20
    name RightHand
    direction -0.992843 -0.0414603 0.112003
    length 5.28593
    axis -0.00960634 0.00330671 -0.185226 xyz
    dof rx ry rz
  end
  begin
    id 21
    name LeftUpLegDummy
    direction 0.718183 -0.695806 0.00816078
    length 4.904
    axis 0 0 0 xyz
  end
  begin
    id 22
    name LeftUpLeg
    direction -6.8115e-006 -0.995793 0.0916336
    length 17.4976
    axis -3.48766 0.00143441 -0.000523914 xyz
    dof rx ry rz
  end
  begin
    id 23
    name LeftLeg
    direction -0.00601357 -0.995091 -0.0987824
    length 16.5821
    axis 3.68177 -0.00654038 -0.00028478 xyz
    dof rx ry rz
  end
  begin
    id 24
    name LeftFoot
    direction -0.00417578 -0.460984 0.887399
    length 3.77069
    axis 1.87232e-006 4.66002e-005 -8.1837e-006 xyz
    dof rx ry rz
  end
  begin
    id 25
    name LeftToes
    direction 0.00818058 -0.00485161 0.999955
    length 3.85048
    axis 1.06246e-005 4.65855e-005 -8.18502e-006 xyz
    dof rx ry rz
  end
:hierarchy
  begin
    root RightUpLegDummy SpineDummy LeftUpLegDummy
    RightUpLegDummy RightUpLeg
    RightUpLeg RightLeg
    RightLeg RightFoot
    RightFoot RightToes
    SpineDummy Spine
    Spine Spine1
    Spine1 HEadDummy LeftShoulder1Dummy RightShoulderDummy
    HEadDummy HEad
    LeftShoulder1Dummy LeftShoulder1
    LeftShoulder1 LeftArm
    LeftArm LeftForeArm
    LeftForeArm LeftHand
    RightShoulderDummy RightShoulder
    RightShoulder RightArm
    RightArm RightForeArm
    RightForeArm RightHand
    LeftUpLegDummy LeftUpLeg
    LeftUpLeg LeftLeg
    LeftLeg LeftFoot
    LeftFoot LeftToes
  end

:SAMPLES-PER-SECOND 30
:FULLY-SPECIFIED
:DEGREES
31
root  4.92853 40.1751 0.405689 50.389 -86.9339 -55.3471
RightUpLeg  0.776254 -3.18287 4.44612
RightLeg  6.00475 -13.232 -1.66313
RightFoot  -0.0974282 -0.332172 3.36532
RightToes  -2.32832e-010 0 -3.6325e-017
Spine  9.16072 -0.481391 4.98364
Spine1  3.32734 0.0603307 -0.63976
HEad  -3.44507 -8.82883 -0.676447
LeftShoulder1  2.75887 -7.2094 -19.2552
LeftArm  -12.9569 21.1024 -54.1886
LeftForeArm  15.5596 0.690484 -13.4224
LeftHand  -0.252487 1.07673 6.72865
RightShoulder  1.5588 3.24405 16.4611
RightArm  0.924846 -0.940161 57.8921
RightForeArm  14.8142 11.3576 12.0309
RightHand  -0.24937 -3.32692 -13.4639
LeftUpLeg  -3.29297 4.13766 7.33684
LeftLeg  14.7622 13.1681 4.54371
LeftFoot  -5.78243 0.558353 -10.7908
LeftToes  2.2737e-010 4.38529e-011 2.18788e-011
32
root  4.81383 40.2378 0.403085 45.1148 -86.8119 -50.0998
RightUpLeg  1.50565 -3.19052 4.34415
RightLeg  4.98568 -13.5387 -1.45251
RightFoot  0.146371 -0.33376 3.32596
RightToes  -2.32832e-010 0 -3.6325e-017
Spine  8.48344 -0.675588 3.87866
Spine1  3.50429 -0.457965 0.275501
HEad  -2.71675 -8.74554 -0.50753
LeftShoulder1  2.73096 -7.07656 -19.3193
LeftArm  -12.5488 20.2387 -54.7364
LeftForeArm  15.5986 0.0820351 -13.538
LeftHand  -0.267263 0.809767 6.74365
RightShoulder  1.56956 3.20203 16.7946
RightArm  -0.400544 -1.41584 57.1326
RightForeArm  15.7972 10.6299 12.295
RightHand  -0.241482 -3.38273 -13.3695
LeftUpLeg  -2.10141 5.60445 7.23213
LeftLeg  12.1404 11.5017 3.93007
LeftFoot  -3.36552 0.739052 -10.282
LeftToes  2.2737e-010 4.38529e-011 2.18788e-011
33
root  4.72882 40.3025 0.404101 32.1565 -86.7047 -37.0402
RightUpLeg  1.8479 -3.35565 3.83927
RightLeg  4.44498 -13.9219 -1.45474
RightFoot  0.235047 -0.346997 3.4372
RightToes  -2.32832e-010 0 -3.6325e-017
Spine  7.8018 -0.886592 2.23424
Spine1  3.6802 -1.03213 1.41446
HEad  -2.30218 -8.73609 -0.172368
LeftShoulder1  2.70961 -6.96808 -19.3874
LeftArm  -11.7031 18.7615 -55.094
LeftForeArm  15.1866 -0.793587 -13.6866
LeftHand  -0.283763 0.48569 6.7245
RightShoulder  1.59637 3.17629 17.332
RightArm  -2.27938 -2.1774 56.2248
RightForeArm  17.1647 9.73576 12.5434
RightHand  -0.228889 -3.51343 -13.4994
LeftUpLeg  -1.51221 6.14021 6.72158
LeftLeg  10.7827 10.68 3.60511
LeftFoot  -2.55252 0.791966 -10.0849
LeftToes  2.2737e-010 4.38529e-011 2.18788e-011
34
root  4.67923 40.3528 0.420142 18.242 -86.3313 -22.9079
RightUpLeg  1.83296 -3.619 3.19355
RightLeg  4.30764 -14.3209 -1.51377
RightFoot  0.190138 -0.362222 3.59802
RightToes  -2.32832e-010 0 -3.6325e-017
Spine  7.25684 -1.10411 0.890553
Spine1  3.69238 -1.48156 2.16543
HEad  -2.18286 -8.95558 0.104593
LeftShoulder1  2.68882 -6.92825 -19.2794
LeftArm  -10.2681 16.9544 -55.3873
LeftForeArm  14.4602 -2.28628 -13.7832
LeftHand  -0.297254 0.225436 6.7166
RightShoulder  1.59469 3.08903 17.6491
RightArm  -4.75574 -3.47928 55.6986
RightForeArm  18.5156 8.73586 12.7211
RightHand  -0.222824 -3.60699 -13.799
LeftUpLeg  -1.12469 6.1598 5.99336
LeftLeg  9.40125 10.2479 3.38269
LeftFoot  -2.01658 0.834883 -10.0722
LeftToes  2.2737e-010 4.38529e-011 2.18788e-011
35
root  4.64342 40.3991 0.454348 11.3012 -85.8755 -15.8969
RightUpLeg  2.09489 -3.7937 2.77786
RightLeg  3.84714 -14.6806 -1.43153
RightFoot  0.279663 -0.373125 3.68316
RightToes  -2.32832e-010 0 -3.6325e-017
Spine  7.0197 -1.28021 0.412848
Spine1  3.52343 -1.6742 2.08136
HEad  -2.15629 -9.31915 0.313218
LeftShoulder1  2.65091 -6.93541 -18.8691
LeftArm  -8.22426 15.1737 -55.8228
LeftForeArm  13.0761 -4.54762 -13.6615
LeftHand  -0.316414 -0.0188681 6.84971
RightShoulder  1.56325 2.96443 17.6284
RightArm  -7.4721 -5.09956 55.6118
RightForeArm  19.6986 7.35687 12.9552
RightHand  -0.228098 -3.59625 -14.0739
LeftUpLeg  -0.512138 6.3787 5.50857
LeftLeg  7.78247 9.67453 3.1512
LeftFoot  -1.12106 0.882773 -9.78277
LeftToes  2.2737e-010 4.38529e-011 2.18788e-011
36
root  4.6062 40.4462 0.498637 9.56273 -85.7339 -14.2965
RightUpLeg  2.7202 -3.84174 2.59724
RightLeg  3.0326 -14.8226 -1.24385
RightFoot  0.527049 -0.385578 3.74176
RightToes  -2.32832e-010 0 -3.6325e-017
Spine  6.99141 -1.34508 0.497752
Spine1  3.3404 -1.63345 1.47965
HEad  -2.09746 -9.5335 0.490567
LeftShoulder1  2.60163 -6.88324 -18.4947
LeftArm  -5.11626 13.5142 -56.1796
LeftForeArm  9.94894 -7.5656 -13.1706
LeftHand  -0.358435 -0.390647 7.28696
RightShoulder  1.55187 2.92908 17.5809
RightArm  -9.8448 -6.5384 55.5163
RightForeArm  21.0965 5.39992 13.2877
RightHand  -0.219575 -3.66147 -14.0119
LeftUpLeg  0.270229 6.81714 5.36951
LeftLeg  6.51532 9.17787 2.92672
LeftFoot  -0.457552 0.897996 -9.38172
LeftToes  2.2737e-010 4.38529e-011 2.18788e-011
37
root  4.57005 40.4807 0.540708 8.69568 -85.8897 -13.4971
RightUpLeg  3.09846 -3.87947 2.42162
RightLeg  2.53529 -14.6615 -1.11518
RightFoot  0.668492 -0.399354 3.83765
RightToes  -2.32832e-010 0 -3.6325e-017
Spine  6.84736 -1.28826 0.484715
Spine1  3.28922 -1.51139 1.09043
HEad  -2.03486 -9.47974 0.55259
LeftShoulder1  2.57038 -6.70939 -18.6257
LeftArm  -0.649777 11.8992 -56.1156
LeftForeArm  4.58881 -11.152 -12.1055
LeftHand  -0.421348 -0.794268 8.03268
RightShoulder  1.5862 3.02617 17.7612
RightArm  -11.5621 -7.56602 55.1172
RightForeArm  23.2342 3.08543 13.5579
RightHand  -0.176321 -3.97649 -13.4585
LeftUpLeg  0.840041 7.11129 5.29536
LeftLeg  5.75089 9.0799 2.74619
LeftFoot  -0.294784 0.898244 -9.25734
LeftToes  2.2737e-010 4.38529e-011 2.18788e-011
38
root  4.53861 40.4978 0.575299 7.30731 -86.0843 -11.9299
RightUpLeg  2.9623 -3.94154 2.19732
RightLeg  2.53383 -14.3927 -1.07766
RightFoot  0.618228 -0.405786 3.91178
RightToes  -2.32832e-010 0 -3.6325e-017
Spine  6.43076 -1.1894 0.176941
Spine1  3.37092 -1.44041 1.15451
HEad  -2.04422 -9.31012 0.478746
LeftShoulder1  2.56222 -6.4974 -19.1112
LeftArm  4.06686 10.4012 -55.8252
LeftForeArm  -1.65958 -14.7804 -10.4013
LeftHand  -0.473091 -0.968895 8.77687
RightShoulder  1.62839 3.13234 18.03
RightArm  -12.7511 -8.30806 54.6469
RightForeArm  26.2012 0.812034 13.6178
RightHand  -0.117351 -4.446 -12.6741
LeftUpLeg  1.04593 7.16127 5.11405
LeftLeg  5.1451 9.24934 2.61188
LeftFoot  -0.162316 0.911548 -9.29123
LeftToes  2.2737e-010 4.38529e-011 2.18788e-011
39
root  4.51104 40.5116 0.607472 6.34082 -86.206 -10.7009
RightUpLeg  2.73962 -3.96006 2.0374
RightLeg  2.49957 -14.2305 -1.04018
RightFoot  0.600382 -0.405992 3.9185
RightToes  -2.32832e-010 0 -3.6325e-017
Spine  5.94418 -1.15163 -0.135522
Spine1  3.45373 -1.44677 1.28656
HEad  -2.13168 -9.11433 0.394936
LeftShoulder1  2.54932 -6.37778 -19.3041
LeftArm  7.24036 9.24633 -55.8291
LeftForeArm  -6.7209 -17.8273 -8.49021
LeftHand  -0.49126 -0.871792 9.24019
RightShoulder  1.63253 3.12387 18.1316
RightArm  -13.5538 -8.95447 54.4503
RightForeArm  29.2914 -1.13617 13.5039
RightHand  -0.0638834 -4.93126 -12.0298
LeftUpLeg  1.1067 7.14559 4.93187
LeftLeg  4.55277 9.42209 2.49847
LeftFoot  0.143928 0.925726 -9.20148
LeftToes  2.2737e-010 4.38529e-011 2.18788e-011
40
root  4.49013 40.53 0.643378 6.21289 -86.3205 -10.4302
RightUpLeg  2.76346 -3.93435 1.95819
RightLeg  2.18595 -14.1406 -0.973924
RightFoot  0.728867 -0.410694 3.92912
RightToes  -2.32832e-010 0 -3.6325e-017
Spine  5.67295 -1.21345 -0.259413
Spine1  3.38525 -1.50937 1.21061
HEad  -2.21985 -8.77478 0.337692
LeftShoulder1  2.51286 -6.34713 -18.9922
LeftArm  8.45324 8.4872 -56.1918
LeftForeArm  -9.76835 -20.0378 -7.00016
LeftHand  -0.500912 -0.744542 9.60232
RightShoulder  1.61132 3.0437 18.1083
RightArm  -14.0162 -9.62302 54.4712
RightForeArm  31.4983 -2.54929 13.357
RightHand  -0.0138602 -5.43821 -11.5358
LeftUpLeg  1.24622 7.20879 4.85371
LeftLeg  4.07936 9.52672 2.37152
LeftFoot  0.334799 0.927235 -9.07598
LeftToes  2.2737e-010 4.38529e-011 2.18788e-011
